<svg width="2284" height="400" viewBox="0 0 2284 400" fill="none" xmlns="http://www.w3.org/2000/svg">
<mask id="mask0_107_148" style="mask-type:luminance" maskUnits="userSpaceOnUse" x="15" y="58" width="951" height="286">
<path d="M966 58H15V344H966V58Z" fill="white"/>
</mask>
<g mask="url(#mask0_107_148)">
<path fill-rule="evenodd" clip-rule="evenodd" d="M703.824 143.363C705.72 143.363 707.257 144.9 707.257 146.796V202.419C707.257 204.316 705.72 205.853 703.824 205.853C701.928 205.853 700.39 204.316 700.39 202.419V146.796C700.39 144.9 701.928 143.363 703.824 143.363Z" fill="#002DCB"/>
<path fill-rule="evenodd" clip-rule="evenodd" d="M703.824 281.39C705.72 281.39 707.257 282.927 707.257 284.824V340.447C707.257 342.343 705.72 343.88 703.824 343.88C701.928 343.88 700.39 342.343 700.39 340.447V284.824C700.39 282.927 701.928 281.39 703.824 281.39Z" fill="#002DCB"/>
<path fill-rule="evenodd" clip-rule="evenodd" d="M804.082 243.622C804.082 245.518 802.545 247.055 800.649 247.055H745.026C743.13 247.055 741.593 245.518 741.593 243.622C741.593 241.725 743.13 240.188 745.026 240.188H800.649C802.545 240.188 804.082 241.725 804.082 243.622Z" fill="#002DCB"/>
<path fill-rule="evenodd" clip-rule="evenodd" d="M666.055 243.622C666.055 245.518 664.518 247.055 662.622 247.055H606.999C605.103 247.055 603.565 245.518 603.565 243.622C603.565 241.725 605.103 240.188 606.999 240.188H662.622C664.518 240.188 666.055 241.725 666.055 243.622Z" fill="#002DCB"/>
<path fill-rule="evenodd" clip-rule="evenodd" d="M774.717 172.728C776.058 174.069 776.058 176.243 774.717 177.584L735.386 216.915C734.045 218.256 731.871 218.256 730.53 216.915C729.19 215.574 729.19 213.4 730.53 212.059L769.862 172.728C771.203 171.387 773.377 171.387 774.717 172.728Z" fill="#002DCB"/>
<path fill-rule="evenodd" clip-rule="evenodd" d="M677.117 270.328C678.458 271.669 678.458 273.843 677.117 275.184L637.786 314.515C636.445 315.856 634.271 315.856 632.93 314.515C631.59 313.174 631.59 311 632.93 309.659L672.262 270.328C673.603 268.987 675.777 268.987 677.117 270.328Z" fill="#002DCB"/>
<path fill-rule="evenodd" clip-rule="evenodd" d="M774.717 314.515C773.377 315.856 771.203 315.856 769.862 314.515L730.53 275.184C729.189 273.843 729.189 271.669 730.53 270.328C731.871 268.987 734.045 268.987 735.386 270.328L774.717 309.659C776.058 311 776.058 313.174 774.717 314.515Z" fill="#002DCB"/>
<path fill-rule="evenodd" clip-rule="evenodd" d="M677.117 216.915C675.777 218.256 673.603 218.256 672.262 216.915L632.93 177.584C631.59 176.243 631.59 174.069 632.93 172.728C634.271 171.387 636.445 171.387 637.786 172.728L677.117 212.059C678.458 213.4 678.458 215.574 677.117 216.915Z" fill="#002DCB"/>
<path fill-rule="evenodd" clip-rule="evenodd" d="M729.773 146.779C731.604 147.27 732.691 149.153 732.201 150.985L717.804 204.712C717.314 206.544 715.431 207.631 713.599 207.14C711.767 206.649 710.681 204.766 711.171 202.935L725.568 149.207C726.058 147.376 727.941 146.289 729.773 146.779Z" fill="#002DCB"/>
<path fill-rule="evenodd" clip-rule="evenodd" d="M694.049 280.103C695.88 280.594 696.967 282.477 696.477 284.308L682.08 338.036C681.59 339.868 679.707 340.955 677.875 340.464C676.043 339.973 674.956 338.09 675.447 336.259L689.844 282.531C690.334 280.699 692.217 279.612 694.049 280.103Z" fill="#002DCB"/>
<path fill-rule="evenodd" clip-rule="evenodd" d="M800.666 269.57C800.175 271.402 798.293 272.489 796.461 271.998L742.733 257.602C740.902 257.111 739.815 255.228 740.306 253.397C740.796 251.565 742.679 250.478 744.511 250.969L798.238 265.365C800.07 265.856 801.157 267.739 800.666 269.57Z" fill="#002DCB"/>
<path fill-rule="evenodd" clip-rule="evenodd" d="M667.342 233.846C666.851 235.678 664.969 236.765 663.137 236.274L609.409 221.878C607.578 221.387 606.491 219.504 606.982 217.673C607.472 215.841 609.355 214.754 611.187 215.245L664.914 229.641C666.746 230.132 667.833 232.015 667.342 233.846Z" fill="#002DCB"/>
<path fill-rule="evenodd" clip-rule="evenodd" d="M790.65 193.492C791.599 195.135 791.036 197.234 789.394 198.183L741.223 225.994C739.581 226.942 737.481 226.379 736.533 224.737C735.584 223.095 736.147 220.995 737.789 220.047L785.96 192.236C787.602 191.287 789.702 191.85 790.65 193.492Z" fill="#002DCB"/>
<path fill-rule="evenodd" clip-rule="evenodd" d="M671.115 262.506C672.064 264.148 671.501 266.248 669.859 267.196L621.688 295.008C620.046 295.956 617.946 295.393 616.998 293.751C616.049 292.109 616.612 290.009 618.254 289.061L666.425 261.249C668.067 260.301 670.167 260.864 671.115 262.506Z" fill="#002DCB"/>
<path fill-rule="evenodd" clip-rule="evenodd" d="M753.953 330.448C752.311 331.396 750.211 330.833 749.263 329.191L721.451 281.02C720.503 279.378 721.066 277.278 722.708 276.33C724.35 275.382 726.45 275.945 727.398 277.587L755.21 325.758C756.158 327.4 755.595 329.5 753.953 330.448Z" fill="#002DCB"/>
<path fill-rule="evenodd" clip-rule="evenodd" d="M684.94 210.913C683.297 211.861 681.197 211.298 680.249 209.656L652.438 161.485C651.49 159.843 652.052 157.743 653.695 156.795C655.337 155.847 657.437 156.41 658.385 158.052L686.196 206.223C687.145 207.865 686.582 209.965 684.94 210.913Z" fill="#002DCB"/>
<path fill-rule="evenodd" clip-rule="evenodd" d="M753.953 156.795C755.595 157.743 756.158 159.843 755.21 161.485L727.399 209.656C726.45 211.298 724.35 211.861 722.708 210.913C721.066 209.965 720.503 207.865 721.451 206.223L749.263 158.052C750.211 156.41 752.311 155.847 753.953 156.795Z" fill="#002DCB"/>
<path fill-rule="evenodd" clip-rule="evenodd" d="M684.94 276.33C686.582 277.278 687.145 279.378 686.196 281.02L658.385 329.191C657.437 330.833 655.337 331.396 653.695 330.448C652.052 329.5 651.49 327.4 652.438 325.758L680.249 277.587C681.198 275.945 683.297 275.382 684.94 276.33Z" fill="#002DCB"/>
<path fill-rule="evenodd" clip-rule="evenodd" d="M790.65 293.751C789.702 295.393 787.602 295.956 785.96 295.008L737.789 267.196C736.147 266.248 735.584 264.148 736.533 262.506C737.481 260.864 739.581 260.301 741.223 261.249L789.394 289.061C791.036 290.009 791.599 292.109 790.65 293.751Z" fill="#002DCB"/>
<path fill-rule="evenodd" clip-rule="evenodd" d="M671.115 224.737C670.167 226.379 668.067 226.942 666.425 225.994L618.254 198.183C616.612 197.234 616.049 195.135 616.998 193.492C617.946 191.85 620.046 191.287 621.688 192.236L669.859 220.047C671.501 220.995 672.063 223.095 671.115 224.737Z" fill="#002DCB"/>
<path fill-rule="evenodd" clip-rule="evenodd" d="M800.666 217.673C801.157 219.504 800.07 221.387 798.238 221.878L744.511 236.274C742.679 236.765 740.796 235.678 740.306 233.846C739.815 232.015 740.902 230.132 742.733 229.641L796.461 215.245C798.293 214.754 800.175 215.841 800.666 217.673Z" fill="#002DCB"/>
<path fill-rule="evenodd" clip-rule="evenodd" d="M667.342 253.397C667.833 255.228 666.746 257.111 664.914 257.602L611.187 271.998C609.355 272.489 607.472 271.402 606.982 269.57C606.491 267.739 607.578 265.856 609.41 265.365L663.137 250.969C664.969 250.478 666.851 251.565 667.342 253.397Z" fill="#002DCB"/>
<path fill-rule="evenodd" clip-rule="evenodd" d="M729.773 340.464C727.941 340.955 726.058 339.868 725.568 338.036L711.171 284.308C710.681 282.477 711.768 280.594 713.599 280.103C715.431 279.612 717.314 280.699 717.804 282.531L732.201 336.259C732.691 338.09 731.604 339.973 729.773 340.464Z" fill="#002DCB"/>
<path fill-rule="evenodd" clip-rule="evenodd" d="M694.049 207.14C692.217 207.631 690.334 206.544 689.844 204.712L675.447 150.985C674.956 149.153 676.043 147.27 677.875 146.779C679.707 146.289 681.59 147.376 682.08 149.207L696.477 202.935C696.967 204.766 695.88 206.649 694.049 207.14Z" fill="#002DCB"/>
<path d="M52.4298 339.106H15V62.9653H52.4298V181.748H189.163V62.9653H226.593V339.106H189.163V216.504H52.4298V339.106Z" fill="#070B1C"/>
<path d="M353.656 343.689C335.578 343.689 319.536 339.615 305.532 331.467C291.527 323.064 280.579 311.606 272.685 297.093C264.792 282.324 260.845 265.265 260.845 245.913C260.845 226.307 264.665 209.12 272.303 194.352C280.197 179.583 290.891 167.998 304.386 159.595C318.136 151.193 334.05 146.991 352.128 146.991C369.952 146.991 385.357 150.811 398.343 158.449C411.583 166.088 421.768 176.782 428.898 190.532C436.282 204.282 439.974 220.451 439.974 239.038V252.406L279.942 252.788L280.706 228.726H404.072C404.072 213.194 399.361 200.717 389.94 191.296C380.519 181.875 367.915 177.164 352.128 177.164C340.161 177.164 329.849 179.838 321.191 185.185C312.789 190.278 306.296 197.916 301.712 208.101C297.384 218.032 295.22 229.999 295.22 244.003C295.22 266.41 300.312 283.725 310.497 295.947C320.682 307.914 335.323 313.898 354.42 313.898C368.424 313.898 379.882 311.097 388.794 305.495C397.706 299.894 403.69 291.746 406.745 281.051H440.356C435.772 300.912 425.969 316.317 410.947 327.266C395.924 338.215 376.827 343.689 353.656 343.689Z" fill="#070B1C"/>
<path d="M505.282 339.106H469.38V58H505.282V339.106Z" fill="#070B1C"/>
<path d="M546.674 339.106V152.338H582.577V339.106H546.674ZM564.244 108.034C557.878 108.034 552.276 105.742 547.438 101.159C542.855 96.3208 540.563 90.7191 540.563 84.3535C540.563 77.7332 542.855 72.1315 547.438 67.5482C552.276 62.965 557.878 60.6733 564.244 60.6733C570.864 60.6733 576.466 62.965 581.049 67.5482C585.632 72.1315 587.924 77.7332 587.924 84.3535C587.924 90.7191 585.632 96.3208 581.049 101.159C576.466 105.742 570.864 108.034 564.244 108.034Z" fill="#070B1C"/>
<path d="M818.432 284.871H852.806C852.806 294.292 856.244 301.803 863.118 307.405C869.993 312.752 879.287 315.426 891 315.426C903.731 315.426 913.534 313.007 920.409 308.169C927.284 303.076 930.721 296.329 930.721 287.926C930.721 281.815 928.812 276.723 924.992 272.649C921.427 268.575 914.807 265.265 905.131 262.718L872.285 255.08C855.734 251.006 843.385 244.767 835.237 236.365C827.344 227.962 823.397 216.886 823.397 203.136C823.397 191.678 826.325 181.748 832.181 173.345C838.292 164.942 846.568 158.449 857.007 153.866C867.702 149.283 879.924 146.991 893.673 146.991C907.423 146.991 919.263 149.41 929.194 154.248C939.378 159.086 947.272 165.834 952.874 174.491C958.73 183.148 961.785 193.46 962.04 205.428H927.666C927.411 195.752 924.228 188.241 918.117 182.893C912.006 177.546 903.476 174.873 892.528 174.873C881.324 174.873 872.667 177.292 866.556 182.13C860.445 186.967 857.389 193.588 857.389 201.99C857.389 214.467 866.556 222.997 884.889 227.58L917.735 235.601C933.522 239.166 945.362 245.022 953.256 253.17C961.149 261.063 965.096 271.885 965.096 285.635C965.096 297.347 961.913 307.66 955.547 316.571C949.182 325.229 940.397 331.976 929.194 336.814C918.245 341.397 905.259 343.689 890.236 343.689C868.338 343.689 850.896 338.342 837.911 327.648C824.925 316.953 818.432 302.694 818.432 284.871Z" fill="#070B1C"/>
</g>
<path d="M1165.08 82.1V339.74H1127.84V82.1H1165.08ZM1045 99.2V65H1207.04V99.2H1045ZM1329.02 344.3C1311.03 344.3 1295.07 340.247 1281.14 332.14C1267.21 323.78 1256.31 312.38 1248.46 297.94C1240.61 283.247 1236.68 266.273 1236.68 247.02C1236.68 227.513 1240.48 210.413 1248.08 195.72C1255.93 181.027 1266.57 169.5 1280 161.14C1293.68 152.78 1309.51 148.6 1327.5 148.6C1345.23 148.6 1360.56 152.4 1373.48 160C1386.65 167.6 1396.79 178.24 1403.88 191.92C1411.23 205.6 1414.9 221.687 1414.9 240.18V253.48L1255.68 253.86L1256.44 229.92H1379.18C1379.18 214.467 1374.49 202.053 1365.12 192.68C1355.75 183.307 1343.21 178.62 1327.5 178.62C1315.59 178.62 1305.33 181.28 1296.72 186.6C1288.36 191.667 1281.9 199.267 1277.34 209.4C1273.03 219.28 1270.88 231.187 1270.88 245.12C1270.88 267.413 1275.95 284.64 1286.08 296.8C1296.21 308.707 1310.78 314.66 1329.78 314.66C1343.71 314.66 1355.11 311.873 1363.98 306.3C1372.85 300.727 1378.8 292.62 1381.84 281.98H1415.28C1410.72 301.74 1400.97 317.067 1386.02 327.96C1371.07 338.853 1352.07 344.3 1329.02 344.3ZM1439.6 285.78H1473.8C1473.8 295.153 1477.22 302.627 1484.06 308.2C1490.9 313.52 1500.14 316.18 1511.8 316.18C1524.46 316.18 1534.22 313.773 1541.06 308.96C1547.9 303.893 1551.32 297.18 1551.32 288.82C1551.32 282.74 1549.42 277.673 1545.62 273.62C1542.07 269.567 1535.48 266.273 1525.86 263.74L1493.18 256.14C1476.71 252.087 1464.42 245.88 1456.32 237.52C1448.46 229.16 1444.54 218.14 1444.54 204.46C1444.54 193.06 1447.45 183.18 1453.28 174.82C1459.36 166.46 1467.59 160 1477.98 155.44C1488.62 150.88 1500.78 148.6 1514.46 148.6C1528.14 148.6 1539.92 151.007 1549.8 155.82C1559.93 160.633 1567.78 167.347 1573.36 175.96C1579.18 184.573 1582.22 194.833 1582.48 206.74H1548.28C1548.02 197.113 1544.86 189.64 1538.78 184.32C1532.7 179 1524.21 176.34 1513.32 176.34C1502.17 176.34 1493.56 178.747 1487.48 183.56C1481.4 188.373 1478.36 194.96 1478.36 203.32C1478.36 215.733 1487.48 224.22 1505.72 228.78L1538.4 236.76C1554.1 240.307 1565.88 246.133 1573.74 254.24C1581.59 262.093 1585.52 272.86 1585.52 286.54C1585.52 298.193 1582.35 308.453 1576.02 317.32C1569.68 325.933 1560.94 332.647 1549.8 337.46C1538.9 342.02 1525.98 344.3 1511.04 344.3C1489.25 344.3 1471.9 338.98 1458.98 328.34C1446.06 317.7 1439.6 303.513 1439.6 285.78ZM1605.37 153.92H1714.05V183.94H1605.37V153.92ZM1677.57 339.74H1641.85V95.78H1677.57V339.74ZM1781.83 339.74H1746.11V153.92H1778.41L1782.21 182.42C1788.03 171.78 1796.39 163.547 1807.29 157.72C1818.43 151.64 1830.59 148.6 1843.77 148.6C1868.09 148.6 1886.07 155.567 1897.73 169.5C1909.38 183.433 1915.21 202.307 1915.21 226.12V339.74H1879.49V234.1C1879.49 215.353 1875.43 201.927 1867.33 193.82C1859.22 185.46 1848.33 181.28 1834.65 181.28C1817.93 181.28 1804.88 186.727 1795.51 197.62C1786.39 208.513 1781.83 223.08 1781.83 241.32V339.74ZM2044.86 344.3C2026.87 344.3 2010.91 340.247 1996.98 332.14C1983.05 323.78 1972.15 312.38 1964.3 297.94C1956.45 283.247 1952.52 266.273 1952.52 247.02C1952.52 227.513 1956.32 210.413 1963.92 195.72C1971.77 181.027 1982.41 169.5 1995.84 161.14C2009.52 152.78 2025.35 148.6 2043.34 148.6C2061.07 148.6 2076.4 152.4 2089.32 160C2102.49 167.6 2112.63 178.24 2119.72 191.92C2127.07 205.6 2130.74 221.687 2130.74 240.18V253.48L1971.52 253.86L1972.28 229.92H2095.02C2095.02 214.467 2090.33 202.053 2080.96 192.68C2071.59 183.307 2059.05 178.62 2043.34 178.62C2031.43 178.62 2021.17 181.28 2012.56 186.6C2004.2 191.667 1997.74 199.267 1993.18 209.4C1988.87 219.28 1986.72 231.187 1986.72 245.12C1986.72 267.413 1991.79 284.64 2001.92 296.8C2012.05 308.707 2026.62 314.66 2045.62 314.66C2059.55 314.66 2070.95 311.873 2079.82 306.3C2088.69 300.727 2094.64 292.62 2097.68 281.98H2131.12C2126.56 301.74 2116.81 317.067 2101.86 327.96C2086.91 338.853 2067.91 344.3 2044.86 344.3ZM2149.02 153.92H2257.7V183.94H2149.02V153.92ZM2221.22 339.74H2185.5V95.78H2221.22V339.74Z" fill="#002DCB"/>
<mask id="mask1_107_148" style="mask-type:luminance" maskUnits="userSpaceOnUse" x="1211" y="65" width="34" height="34">
<path d="M1245 65H1211V99H1245V65Z" fill="white"/>
</mask>
<g mask="url(#mask1_107_148)">
<path d="M1221 65H1211V99H1221V65Z" fill="#002DCB"/>
<path d="M1233 65H1225V99H1233V65Z" fill="#002DCB"/>
<path d="M1245 65H1237V99H1245V65Z" fill="#002DCB"/>
</g>
</svg>
