<svg version="1.2" xmlns="http://www.w3.org/2000/svg" viewBox="0 0 280 49" width="280" height="49">
	<title>Helios-Testnet-Logo</title>
	<defs>
		<clipPath clipPathUnits="userSpaceOnUse" id="cp1">
			<path d="m118.42 7.1v35.04h-116.58v-35.04z"/>
		</clipPath>
		<clipPath clipPathUnits="userSpaceOnUse" id="cp2">
			<path d="m152.63 7.96v4.17h-4.17v-4.17z"/>
		</clipPath>
	</defs>
	<style>
		.s0 { fill: #002dcb } 
		.s1 { fill: #070b1c } 
	</style>
	<g id="Clip-Path" clip-path="url(#cp1)">
		<g>
			<path fill-rule="evenodd" class="s0" d="m86.3 17.6c0.2 0 0.4 0.2 0.4 0.4v6.8c0 0.2-0.2 0.4-0.4 0.4-0.2 0-0.4-0.2-0.4-0.4v-6.8c0-0.2 0.2-0.4 0.4-0.4z"/>
			<path fill-rule="evenodd" class="s0" d="m86.3 34.5c0.2 0 0.4 0.2 0.4 0.4v6.8c0 0.2-0.2 0.4-0.4 0.4-0.2 0-0.4-0.2-0.4-0.4v-6.8c0-0.2 0.2-0.4 0.4-0.4z"/>
			<path fill-rule="evenodd" class="s0" d="m98.6 29.8c0 0.3-0.2 0.5-0.4 0.5h-6.9c-0.2 0-0.4-0.2-0.4-0.5 0-0.2 0.2-0.4 0.4-0.4h6.9c0.2 0 0.4 0.2 0.4 0.4z"/>
			<path fill-rule="evenodd" class="s0" d="m81.7 29.8c0 0.3-0.2 0.5-0.5 0.5h-6.8c-0.2 0-0.4-0.2-0.4-0.5 0-0.2 0.2-0.4 0.4-0.4h6.8c0.3 0 0.5 0.2 0.5 0.4z"/>
			<path fill-rule="evenodd" class="s0" d="m95 21.2c0.1 0.1 0.1 0.4 0 0.6l-4.8 4.8c-0.2 0.1-0.5 0.1-0.6 0-0.2-0.2-0.2-0.5 0-0.6l4.8-4.8c0.1-0.2 0.4-0.2 0.6 0z"/>
			<path fill-rule="evenodd" class="s0" d="m83 33.1c0.2 0.2 0.2 0.4 0 0.6l-4.8 4.8c-0.2 0.2-0.4 0.2-0.6 0-0.2-0.1-0.2-0.4 0-0.6l4.8-4.8c0.2-0.1 0.4-0.1 0.6 0z"/>
			<path fill-rule="evenodd" class="s0" d="m95 38.5c-0.2 0.2-0.5 0.2-0.6 0l-4.8-4.8c-0.2-0.2-0.2-0.4 0-0.6 0.1-0.1 0.4-0.1 0.6 0l4.8 4.8c0.1 0.2 0.1 0.5 0 0.6z"/>
			<path fill-rule="evenodd" class="s0" d="m83 26.6c-0.2 0.1-0.4 0.1-0.6 0l-4.8-4.8c-0.2-0.2-0.2-0.5 0-0.6 0.2-0.2 0.4-0.2 0.6 0l4.8 4.8c0.2 0.1 0.2 0.4 0 0.6z"/>
			<path fill-rule="evenodd" class="s0" d="m89.5 18c0.2 0 0.3 0.3 0.3 0.5l-1.8 6.6c-0.1 0.2-0.3 0.3-0.5 0.3-0.2-0.1-0.4-0.3-0.3-0.5l1.7-6.6c0.1-0.2 0.3-0.4 0.6-0.3z"/>
			<path fill-rule="evenodd" class="s0" d="m85.1 34.3c0.2 0.1 0.3 0.3 0.3 0.5l-1.8 6.6c0 0.2-0.3 0.4-0.5 0.3-0.2-0.1-0.4-0.3-0.3-0.5l1.8-6.6c0-0.2 0.3-0.3 0.5-0.3z"/>
			<path fill-rule="evenodd" class="s0" d="m98.2 33c-0.1 0.2-0.3 0.4-0.6 0.3l-6.5-1.7c-0.3-0.1-0.4-0.3-0.3-0.6 0-0.2 0.2-0.3 0.5-0.3l6.6 1.8c0.2 0.1 0.3 0.3 0.3 0.5z"/>
			<path fill-rule="evenodd" class="s0" d="m81.8 28.6c0 0.3-0.3 0.4-0.5 0.3l-6.6-1.7c-0.2-0.1-0.3-0.3-0.3-0.5 0.1-0.3 0.3-0.4 0.5-0.3l6.6 1.7c0.2 0.1 0.4 0.3 0.3 0.5z"/>
			<path fill-rule="evenodd" class="s0" d="m96.9 23.7c0.1 0.2 0.1 0.5-0.1 0.6l-5.9 3.4c-0.2 0.1-0.5 0-0.6-0.2-0.1-0.2-0.1-0.4 0.1-0.5l6-3.5c0.2-0.1 0.4 0 0.5 0.2z"/>
			<path fill-rule="evenodd" class="s0" d="m82.3 32.2c0.1 0.2 0 0.4-0.2 0.5l-5.9 3.4c-0.2 0.2-0.4 0.1-0.6-0.1-0.1-0.2 0-0.5 0.2-0.6l5.9-3.4c0.2-0.1 0.5 0 0.6 0.2z"/>
			<path fill-rule="evenodd" class="s0" d="m92.4 40.5c-0.2 0.1-0.4 0-0.5-0.2l-3.5-5.9c-0.1-0.2 0-0.4 0.2-0.5 0.2-0.2 0.5-0.1 0.6 0.1l3.4 5.9c0.1 0.2 0 0.5-0.2 0.6z"/>
			<path fill-rule="evenodd" class="s0" d="m84 25.8c-0.2 0.2-0.5 0.1-0.6-0.1l-3.4-5.9c-0.1-0.2-0.1-0.5 0.1-0.6 0.2-0.1 0.5 0 0.6 0.2l3.4 5.9c0.1 0.2 0.1 0.4-0.1 0.5z"/>
			<path fill-rule="evenodd" class="s0" d="m92.4 19.2c0.2 0.1 0.3 0.4 0.2 0.6l-3.4 5.9c-0.1 0.2-0.4 0.3-0.6 0.1-0.2-0.1-0.3-0.3-0.2-0.5l3.5-5.9c0.1-0.2 0.3-0.3 0.5-0.2z"/>
			<path fill-rule="evenodd" class="s0" d="m84 33.9c0.2 0.1 0.2 0.3 0.1 0.5l-3.4 5.9c-0.1 0.2-0.4 0.3-0.6 0.2-0.2-0.1-0.2-0.4-0.1-0.6l3.4-5.9c0.1-0.2 0.4-0.3 0.6-0.1z"/>
			<path fill-rule="evenodd" class="s0" d="m96.9 36c-0.1 0.2-0.3 0.3-0.5 0.1l-6-3.4c-0.2-0.1-0.2-0.3-0.1-0.5 0.1-0.2 0.4-0.3 0.6-0.2l5.9 3.4c0.2 0.1 0.2 0.4 0.1 0.6z"/>
			<path fill-rule="evenodd" class="s0" d="m82.3 27.5c-0.1 0.2-0.4 0.3-0.6 0.2l-5.9-3.4c-0.2-0.1-0.3-0.4-0.2-0.6 0.2-0.2 0.4-0.3 0.6-0.2l5.9 3.5c0.2 0.1 0.3 0.3 0.2 0.5z"/>
			<path fill-rule="evenodd" class="s0" d="m98.2 26.7c0 0.2-0.1 0.4-0.3 0.5l-6.6 1.7c-0.3 0.1-0.5 0-0.5-0.3-0.1-0.2 0-0.4 0.3-0.5l6.5-1.7c0.3-0.1 0.5 0 0.6 0.3z"/>
			<path fill-rule="evenodd" class="s0" d="m81.8 31c0.1 0.3-0.1 0.5-0.3 0.6l-6.6 1.7c-0.2 0.1-0.4-0.1-0.5-0.3 0-0.2 0.1-0.4 0.3-0.5l6.6-1.8c0.2 0 0.5 0.1 0.5 0.3z"/>
			<path fill-rule="evenodd" class="s0" d="m89.5 41.7c-0.3 0.1-0.5-0.1-0.6-0.3l-1.7-6.6c-0.1-0.2 0.1-0.4 0.3-0.5 0.2 0 0.4 0.1 0.5 0.3l1.8 6.6c0 0.2-0.1 0.4-0.3 0.5z"/>
			<path fill-rule="evenodd" class="s0" d="m85.1 25.4c-0.2 0-0.5-0.1-0.5-0.3l-1.8-6.6c-0.1-0.2 0.1-0.5 0.3-0.5 0.2-0.1 0.5 0.1 0.5 0.3l1.8 6.6c0 0.2-0.1 0.4-0.3 0.5z"/>
			<path class="s1" d="m6.4 41.5h-4.6v-33.8h4.6v14.6h16.8v-14.6h4.6v33.8h-4.6v-15h-16.8z"/>
			<path class="s1" d="m43.4 42.1q-3.4 0-5.9-1.5-2.6-1.5-4.1-4.2-1.4-2.7-1.4-6.3 0-3.6 1.4-6.3 1.4-2.7 3.9-4.2 2.5-1.6 5.9-1.6 3.2 0 5.6 1.4 2.5 1.4 3.8 3.9 1.3 2.6 1.3 6v1.6l-19.6 0.1 0.1-3h15.1q0-2.8-1.7-4.6-1.7-1.7-4.6-1.7-2.2 0-3.8 1-1.6 0.9-2.4 2.8-0.8 1.8-0.8 4.4 0 4.1 1.9 6.4 1.8 2.2 5.3 2.2 2.6 0 4.3-1.1 1.6-1 2.2-3h4.1q-0.9 3.7-3.6 5.7-2.8 2-7 2z"/>
			<path fill-rule="evenodd" class="s1" d="m61.9 7.1v34.4h-4.4v-34.4z"/>
			<path class="s1" d="m67 41.5v-22.8h4.4v22.8zm2.2-28.3q-1.2 0-2.1-0.8-0.8-0.9-0.8-2.1 0-1.2 0.8-2 0.9-0.9 2.1-0.9 1.2 0 2 0.9 0.9 0.8 0.9 2 0 1.2-0.9 2.1-0.8 0.8-2 0.8z"/>
			<path class="s1" d="m100.3 34.9h4.2q0 1.7 1.3 2.8 1.3 0.9 3.4 0.9 2.4 0 3.6-0.8 1.3-1 1.3-2.5 0-1.2-0.7-1.9-0.7-0.7-2.4-1.2l-4.1-1q-3-0.7-4.5-2.2-1.5-1.6-1.5-4.1 0-2.1 1.1-3.7 1.1-1.5 3.1-2.4 1.9-0.8 4.5-0.8 2.5 0 4.3 0.9 1.9 0.9 2.9 2.5 1.1 1.6 1.1 3.8h-4.2q0-1.8-1.1-2.8-1.2-1-3.2-1-2 0-3.2 0.9-1.1 0.9-1.1 2.4 0 2.3 3.4 3.2l4 1q2.9 0.6 4.4 2.1 1.4 1.5 1.4 4 0 2.1-1.2 3.8-1.1 1.6-3.2 2.5-2 0.8-4.8 0.8-4 0-6.4-2-2.4-1.9-2.4-5.2z"/>
		</g>
	</g>
	<path class="s0" d="m142.8 10.1v31.5h-4.5v-31.5zm-14.8 2.1v-4.2h19.9v4.2zm34.8 30q-3.3 0-5.8-1.5-2.6-1.5-4-4.2-1.5-2.7-1.5-6.2 0-3.6 1.4-6.3 1.4-2.7 3.9-4.3 2.5-1.5 5.8-1.5 3.3 0 5.7 1.4 2.4 1.4 3.7 3.9 1.4 2.5 1.4 5.9v1.7h-19.6l0.1-2.9h15.1q0-2.9-1.7-4.6-1.8-1.7-4.7-1.7-2.1 0-3.7 1-1.6 0.9-2.4 2.8-0.8 1.8-0.8 4.3 0 4.1 1.9 6.4 1.8 2.1 5.3 2.1 2.6 0 4.2-1 1.6-1 2.2-3h4.1q-0.8 3.7-3.6 5.7-2.7 2-7 2zm13.6-7.2h4.2q0 1.7 1.2 2.8 1.3 0.9 3.4 0.9 2.4 0 3.6-0.9 1.3-0.9 1.3-2.4 0-1.1-0.7-1.9-0.7-0.7-2.4-1.2l-4-0.9q-3.1-0.8-4.6-2.3-1.4-1.5-1.4-4.1 0-2 1.1-3.6 1.1-1.5 3-2.4 1.9-0.8 4.5-0.8 2.5 0 4.3 0.9 1.9 0.9 2.9 2.5 1.1 1.5 1.1 3.7h-4.2q0-1.7-1.2-2.7-1.1-1-3.1-1-2 0-3.1 0.9-1.2 0.9-1.2 2.4 0 2.3 3.4 3.1l4 1q2.9 0.7 4.3 2.1 1.5 1.5 1.5 4 0 2.1-1.2 3.8-1.2 1.6-3.2 2.4-2 0.9-4.8 0.9-4 0-6.3-2-2.4-1.9-2.4-5.2zm20.3-16.1h13.3v3.6h-13.3zm8.9 22.8h-4.4v-29.9h4.4zm12.7 0h-4.3v-22.8h3.9l0.5 3.5q1.1-1.9 3.1-3 2-1.1 4.4-1.1 4.5 0 6.6 2.6 2.2 2.5 2.2 6.9v13.9h-4.4v-12.9q0-3.5-1.5-5-1.5-1.5-4-1.5-3.1 0-4.8 2-1.7 2-1.7 5.4zm32.3 0.5q-3.3 0-5.9-1.5-2.5-1.5-4-4.2-1.4-2.7-1.4-6.2 0-3.6 1.4-6.3 1.4-2.7 3.9-4.2 2.5-1.6 5.8-1.6 3.3 0 5.6 1.4 2.5 1.4 3.8 3.9 1.3 2.6 1.3 6v1.6h-19.5l0.1-2.9h15q0-2.8-1.7-4.6-1.7-1.7-4.6-1.7-2.2 0-3.8 1-1.5 0.9-2.4 2.8-0.7 1.8-0.7 4.4 0 4.1 1.8 6.3 1.9 2.2 5.4 2.2 2.5 0 4.2-1 1.6-1.1 2.2-3h4.1q-0.9 3.6-3.6 5.6-2.8 2-7 2zm12.8-23.3h13.3v3.7h-13.3zm8.8 22.7h-4.4v-29.9h4.4z"/>
	<g id="Clip-Path" clip-path="url(#cp2)">
		<g>
			<path fill-rule="evenodd" class="s0" d="m149.7 8v4.1h-1.2v-4.1z"/>
			<path fill-rule="evenodd" class="s0" d="m151.2 8v4.1h-1v-4.1z"/>
			<path fill-rule="evenodd" class="s0" d="m152.6 8v4.1h-1v-4.1z"/>
		</g>
	</g>
</svg>