<svg version="1.2" xmlns="http://www.w3.org/2000/svg" viewBox="0 0 761 133" width="761" height="133">
	<title>Helios-Testnet-Logo</title>
	<defs>
		<clipPath clipPathUnits="userSpaceOnUse" id="cp1">
			<path d="m321.86 19.29v95.09h-316.86v-95.09z"/>
		</clipPath>
		<clipPath clipPathUnits="userSpaceOnUse" id="cp2">
			<path d="m414.82 21.61v11.31h-11.33v-11.31z"/>
		</clipPath>
	</defs>
	<style>
		.s0 { fill: #002dcb } 
		.s1 { fill: #070b1c } 
	</style>
	<g id="Clip-Path" clip-path="url(#cp1)">
		<g>
			<path fill-rule="evenodd" class="s0" d="m234.5 47.7c0.6 0 1.1 0.5 1.1 1.1v18.5c0 0.6-0.5 1.1-1.1 1.1-0.6 0-1.1-0.5-1.1-1.1v-18.5c0-0.6 0.5-1.1 1.1-1.1z"/>
			<path fill-rule="evenodd" class="s0" d="m234.5 93.6c0.6 0 1.1 0.5 1.1 1.1v18.5c0 0.6-0.5 1.1-1.1 1.1-0.6 0-1.1-0.5-1.1-1.1v-18.5c0-0.6 0.5-1.1 1.1-1.1z"/>
			<path fill-rule="evenodd" class="s0" d="m267.9 81c0 0.6-0.5 1.1-1.1 1.1h-18.6c-0.6 0-1.1-0.5-1.1-1.1 0-0.6 0.5-1.1 1.1-1.1h18.6c0.6 0 1.1 0.5 1.1 1.1z"/>
			<path fill-rule="evenodd" class="s0" d="m221.9 81c0 0.6-0.5 1.1-1.1 1.1h-18.6c-0.6 0-1.1-0.5-1.1-1.1 0-0.6 0.5-1.1 1.1-1.1h18.6c0.6 0 1.1 0.5 1.1 1.1z"/>
			<path fill-rule="evenodd" class="s0" d="m258.1 57.4c0.5 0.5 0.5 1.2 0 1.6l-13.1 13.1c-0.4 0.5-1.1 0.5-1.6 0-0.4-0.4-0.4-1.1 0-1.6l13.1-13.1c0.5-0.4 1.2-0.4 1.6 0z"/>
			<path fill-rule="evenodd" class="s0" d="m225.6 89.9c0.5 0.4 0.5 1.2 0 1.6l-13.1 13.1c-0.4 0.4-1.2 0.4-1.6 0-0.5-0.5-0.5-1.2 0-1.6l13.1-13.1c0.4-0.5 1.2-0.5 1.6 0z"/>
			<path fill-rule="evenodd" class="s0" d="m258.1 104.6c-0.4 0.4-1.1 0.4-1.6 0l-13.1-13.1c-0.4-0.4-0.4-1.2 0-1.6 0.5-0.5 1.2-0.5 1.6 0l13.1 13.1c0.5 0.4 0.5 1.1 0 1.6z"/>
			<path fill-rule="evenodd" class="s0" d="m225.6 72.1c-0.4 0.5-1.2 0.5-1.6 0l-13.1-13.1c-0.5-0.4-0.5-1.1 0-1.6 0.4-0.4 1.2-0.4 1.6 0l13.1 13.1c0.5 0.5 0.5 1.2 0 1.6z"/>
			<path fill-rule="evenodd" class="s0" d="m243.2 48.8c0.6 0.2 0.9 0.8 0.8 1.4l-4.8 17.9c-0.2 0.6-0.8 0.9-1.4 0.8-0.6-0.2-1-0.8-0.8-1.4l4.8-17.9c0.1-0.6 0.7-1 1.4-0.8z"/>
			<path fill-rule="evenodd" class="s0" d="m231.2 93.1c0.7 0.2 1 0.8 0.9 1.4l-4.8 17.9c-0.2 0.6-0.8 1-1.4 0.8-0.7-0.2-1-0.8-0.8-1.4l4.7-17.9c0.2-0.6 0.8-0.9 1.4-0.8z"/>
			<path fill-rule="evenodd" class="s0" d="m266.8 89.6c-0.2 0.6-0.8 1-1.4 0.8l-17.9-4.7c-0.6-0.2-1-0.8-0.8-1.4 0.1-0.7 0.8-1 1.4-0.9l17.9 4.8c0.6 0.2 0.9 0.8 0.8 1.4z"/>
			<path fill-rule="evenodd" class="s0" d="m222.3 77.8c-0.1 0.6-0.7 0.9-1.4 0.8l-17.9-4.8c-0.6-0.2-0.9-0.8-0.8-1.4 0.2-0.6 0.8-1 1.4-0.8l17.9 4.8c0.7 0.1 1 0.7 0.8 1.4z"/>
			<path fill-rule="evenodd" class="s0" d="m263.4 64.3c0.4 0.6 0.2 1.3-0.4 1.6l-16 9.2c-0.6 0.4-1.3 0.2-1.6-0.4-0.3-0.5-0.1-1.2 0.4-1.5l16.1-9.3c0.5-0.3 1.2-0.1 1.5 0.4z"/>
			<path fill-rule="evenodd" class="s0" d="m223.6 87.3c0.3 0.5 0.1 1.2-0.4 1.5l-16.1 9.3c-0.5 0.3-1.2 0.1-1.5-0.4-0.3-0.6-0.2-1.3 0.4-1.6l16-9.2c0.6-0.3 1.3-0.2 1.6 0.4z"/>
			<path fill-rule="evenodd" class="s0" d="m251.2 109.9c-0.5 0.3-1.2 0.1-1.6-0.4l-9.2-16.1c-0.3-0.5-0.1-1.2 0.4-1.5 0.5-0.3 1.2-0.1 1.6 0.4l9.2 16c0.3 0.6 0.2 1.3-0.4 1.6z"/>
			<path fill-rule="evenodd" class="s0" d="m228.2 70.1c-0.5 0.3-1.2 0.2-1.5-0.4l-9.3-16c-0.3-0.6-0.1-1.3 0.4-1.6 0.6-0.3 1.2-0.1 1.6 0.5l9.2 16c0.3 0.5 0.2 1.2-0.4 1.5z"/>
			<path fill-rule="evenodd" class="s0" d="m251.2 52.1c0.6 0.3 0.7 1 0.4 1.6l-9.2 16c-0.4 0.6-1.1 0.7-1.6 0.4-0.5-0.3-0.7-1-0.4-1.5l9.2-16c0.4-0.6 1.1-0.8 1.6-0.5z"/>
			<path fill-rule="evenodd" class="s0" d="m228.2 91.9c0.6 0.3 0.7 1 0.4 1.5l-9.2 16.1c-0.4 0.5-1 0.7-1.6 0.4-0.5-0.3-0.7-1-0.4-1.6l9.3-16c0.3-0.5 1-0.7 1.5-0.4z"/>
			<path fill-rule="evenodd" class="s0" d="m263.4 97.7c-0.3 0.5-1 0.7-1.5 0.4l-16.1-9.3c-0.5-0.3-0.7-1-0.4-1.5 0.3-0.6 1-0.7 1.6-0.4l16 9.2c0.6 0.3 0.8 1 0.4 1.6z"/>
			<path fill-rule="evenodd" class="s0" d="m223.6 74.7c-0.3 0.6-1 0.8-1.6 0.4l-16-9.2c-0.6-0.3-0.7-1-0.4-1.6 0.3-0.5 1-0.7 1.5-0.4l16.1 9.3c0.5 0.3 0.7 1 0.4 1.5z"/>
			<path fill-rule="evenodd" class="s0" d="m266.8 72.4c0.1 0.6-0.2 1.2-0.8 1.4l-17.9 4.8c-0.6 0.1-1.3-0.2-1.4-0.8-0.2-0.7 0.2-1.3 0.8-1.4l17.9-4.8c0.6-0.2 1.2 0.2 1.4 0.8z"/>
			<path fill-rule="evenodd" class="s0" d="m222.3 84.3c0.2 0.6-0.1 1.2-0.8 1.4l-17.9 4.7c-0.6 0.2-1.2-0.2-1.4-0.8-0.1-0.6 0.2-1.2 0.8-1.4l17.9-4.8c0.7-0.1 1.3 0.2 1.4 0.9z"/>
			<path fill-rule="evenodd" class="s0" d="m243.2 113.2c-0.7 0.2-1.3-0.2-1.4-0.8l-4.8-17.9c-0.2-0.6 0.2-1.2 0.8-1.4 0.6-0.1 1.2 0.2 1.4 0.8l4.8 17.9c0.1 0.6-0.2 1.2-0.8 1.4z"/>
			<path fill-rule="evenodd" class="s0" d="m231.2 68.9c-0.6 0.1-1.2-0.2-1.4-0.8l-4.7-17.9c-0.2-0.6 0.1-1.2 0.8-1.4 0.6-0.2 1.2 0.2 1.4 0.8l4.8 17.9c0.1 0.6-0.2 1.2-0.9 1.4z"/>
			<path class="s1" d="m17.5 112.8h-12.5v-91.9h12.5v39.5h45.5v-39.5h12.5v91.9h-12.5v-40.8h-45.5z"/>
			<path class="s1" d="m117.8 114.3q-9 0-16-4.1-7-4.2-10.9-11.4-4-7.4-4-17 0-9.8 3.8-17.2 4-7.3 10.7-11.5 6.9-4.2 15.9-4.2 8.9 0 15.4 3.8 6.6 3.8 10.2 10.7 3.7 6.8 3.7 16.1v4.4l-53.3 0.2 0.2-8h41.1q0-7.8-4.7-12.5-4.7-4.7-12.6-4.7-6 0-10.3 2.7-4.2 2.5-6.5 7.6-2.1 4.9-2.1 11.9 0 11.2 5.1 17.3 5 6 14.6 6 7 0 11.4-2.8 4.5-2.8 6-8.2h11.2q-2.3 10-9.8 15.4-7.5 5.5-19.1 5.5z"/>
			<path fill-rule="evenodd" class="s1" d="m168.4 19.3v93.5h-12v-93.5z"/>
			<path class="s1" d="m182.1 112.8v-62.1h12v62.1zm5.9-76.9q-3.2 0-5.6-2.3-2.3-2.4-2.3-5.6 0-3.3 2.3-5.5 2.4-2.3 5.6-2.3 3.3 0 5.6 2.3 2.3 2.2 2.3 5.5 0 3.2-2.3 5.6-2.3 2.3-5.6 2.3z"/>
			<path class="s1" d="m272.7 94.7h11.4q0 4.7 3.5 7.5 3.4 2.7 9.3 2.7 6.3 0 9.8-2.4 3.4-2.6 3.4-6.8 0-3-1.9-5-1.8-2.1-6.6-3.3l-11-2.6q-8.2-2-12.3-6.2-4-4.2-4-11.1 0-5.7 3-9.9 3-4.2 8.2-6.4 5.4-2.3 12.3-2.3 6.8 0 11.8 2.4 5.1 2.4 7.9 6.7 2.9 4.3 3 10.3h-11.4q-0.1-4.8-3.2-7.5-3-2.7-8.5-2.7-5.6 0-8.7 2.5-3 2.4-3 6.6 0 6.2 9.1 8.5l11 2.6q7.9 1.8 11.8 5.9 4 3.9 4 10.8 0 5.8-3.2 10.3-3.2 4.3-8.8 6.7-5.5 2.3-13 2.3-10.9 0-17.4-5.4-6.5-5.3-6.5-14.2z"/>
		</g>
	</g>
	<path class="s0" d="m388.2 27.3v85.7h-12.4v-85.7zm-40 5.7v-11.4h54v11.4zm94.6 81.5q-9 0-16-4.1-6.9-4.1-10.8-11.3-4-7.4-4-17 0-9.7 3.8-17 3.9-7.4 10.7-11.5 6.8-4.2 15.8-4.2 8.8 0 15.3 3.8 6.6 3.8 10.1 10.6 3.7 6.8 3.7 16.1v4.4l-53 0.1 0.2-8h40.9q0-7.7-4.7-12.3-4.7-4.7-12.5-4.7-6 0-10.3 2.6-4.1 2.6-6.4 7.6-2.2 5-2.2 11.9 0 11.1 5.1 17.2 5.1 5.9 14.5 5.9 7 0 11.4-2.8 4.5-2.7 6-8h11.1q-2.2 9.8-9.7 15.2-7.5 5.5-19 5.5zm36.8-19.5h11.4q0 4.7 3.5 7.5 3.4 2.6 9.2 2.6 6.3 0 9.7-2.4 3.5-2.5 3.5-6.7 0-3-1.9-5-1.8-2-6.6-3.3l-10.9-2.5q-8.2-2.1-12.3-6.2-3.9-4.2-3.9-11 0-5.7 2.9-9.9 3-4.1 8.2-6.4 5.3-2.3 12.2-2.3 6.8 0 11.8 2.4 5 2.4 7.8 6.7 2.9 4.3 3 10.2h-11.4q-0.1-4.8-3.1-7.4-3.1-2.7-8.5-2.7-5.6 0-8.6 2.4-3 2.4-3 6.6 0 6.2 9.1 8.5l10.9 2.6q7.8 1.8 11.7 5.8 4 4 4 10.8 0 5.8-3.2 10.2-3.2 4.3-8.7 6.7-5.5 2.3-13 2.3-10.8 0-17.3-5.3-6.5-5.3-6.5-14.2zm55.3-43.8h36.2v10h-36.2zm24 61.7h-11.9v-81.1h11.9zm34.8 0h-11.9v-61.8h10.7l1.3 9.5q2.9-5.3 8.3-8.2 5.6-3 12.2-3 12.2 0 18 6.9 5.8 7 5.8 18.8v37.8h-11.9v-35.1q0-9.3-4-13.4-4.1-4.2-10.9-4.2-8.4 0-13.1 5.5-4.5 5.4-4.5 14.5zm87.6 1.5q-9 0-15.9-4-7-4.2-10.9-11.4-4-7.3-4-16.9 0-9.8 3.8-17.1 4-7.3 10.7-11.5 6.8-4.2 15.8-4.2 8.9 0 15.3 3.8 6.6 3.8 10.1 10.7 3.7 6.8 3.7 16v4.4l-53 0.1 0.2-7.9h40.9q0-7.7-4.7-12.4-4.7-4.7-12.5-4.7-6 0-10.3 2.7-4.1 2.5-6.4 7.6-2.2 4.9-2.2 11.8 0 11.2 5.1 17.2 5.1 6 14.6 6 6.9 0 11.4-2.8 4.4-2.8 5.9-8.1h11.1q-2.2 9.9-9.7 15.3-7.5 5.4-19 5.4zm34.7-63.3h36.2v10h-36.2zm24.1 61.8h-11.9v-81.1h11.9z"/>
	<g id="Clip-Path" clip-path="url(#cp2)">
		<g>
			<path fill-rule="evenodd" class="s0" d="m406.8 21.6v11.3h-3.3v-11.3z"/>
			<path fill-rule="evenodd" class="s0" d="m410.8 21.6v11.3h-2.6v-11.3z"/>
			<path fill-rule="evenodd" class="s0" d="m414.8 21.6v11.3h-2.6v-11.3z"/>
		</g>
	</g>
</svg>