<svg width="48" height="48" viewBox="0 0 48 48" fill="none" xmlns="http://www.w3.org/2000/svg">
<rect width="48" height="48" rx="24" fill="#D7E0FF"/>
<path d="M20.6667 25.6666C23.4281 25.6666 25.6667 23.428 25.6667 20.6666C25.6667 17.9052 23.4281 15.6666 20.6667 15.6666C17.9053 15.6666 15.6667 17.9052 15.6667 20.6666C15.6667 23.428 17.9053 25.6666 20.6667 25.6666Z" stroke="#002DCB" stroke-width="1.06" stroke-linecap="round" stroke-linejoin="round"/>
<path d="M29.075 22.6416C29.8628 22.9353 30.5638 23.4229 31.1132 24.0593C31.6625 24.6957 32.0426 25.4603 32.2182 26.2825C32.3937 27.1047 32.3591 27.9579 32.1176 28.7631C31.876 29.5684 31.4353 30.2998 30.8362 30.8896C30.2371 31.4794 29.499 31.9087 28.69 32.1376C27.8811 32.3666 27.0275 32.3879 26.2081 32.1995C25.3888 32.0111 24.6301 31.6192 24.0024 31.0599C23.3746 30.5007 22.8981 29.7922 22.6167 28.9999" stroke="#002DCB" stroke-width="1.06" stroke-linecap="round" stroke-linejoin="round"/>
<path d="M19.8333 19H20.6666V22.3333" stroke="#002DCB" stroke-width="1.06" stroke-linecap="round" stroke-linejoin="round"/>
<path d="M27.925 25.5667L28.5083 26.1583L26.1583 28.5083" stroke="#002DCB" stroke-width="1.06" stroke-linecap="round" stroke-linejoin="round"/>
</svg>
