<svg width="48" height="48" viewBox="0 0 48 48" fill="none" xmlns="http://www.w3.org/2000/svg">
<rect width="48" height="48" rx="24" fill="#D7E0FF"/>
<path d="M30.6667 15.6666H17.3333C16.4128 15.6666 15.6667 16.4128 15.6667 17.3333V20.6666C15.6667 21.5871 16.4128 22.3333 17.3333 22.3333H30.6667C31.5871 22.3333 32.3333 21.5871 32.3333 20.6666V17.3333C32.3333 16.4128 31.5871 15.6666 30.6667 15.6666Z" stroke="#002DCB" stroke-width="1.06" stroke-linecap="round" stroke-linejoin="round"/>
<path d="M30.6667 25.6666H17.3333C16.4128 25.6666 15.6667 26.4128 15.6667 27.3333V30.6666C15.6667 31.5871 16.4128 32.3333 17.3333 32.3333H30.6667C31.5871 32.3333 32.3333 31.5871 32.3333 30.6666V27.3333C32.3333 26.4128 31.5871 25.6666 30.6667 25.6666Z" stroke="#002DCB" stroke-width="1.06" stroke-linecap="round" stroke-linejoin="round"/>
<path d="M19 19H19.0083" stroke="#002DCB" stroke-width="1.06" stroke-linecap="round" stroke-linejoin="round"/>
<path d="M19 29H19.0083" stroke="#002DCB" stroke-width="1.06" stroke-linecap="round" stroke-linejoin="round"/>
</svg>
