<svg width="48" height="49" viewBox="0 0 48 49" fill="none" xmlns="http://www.w3.org/2000/svg">
<rect y="0.5" width="48" height="48" rx="24" fill="#D7E0FF"/>
<path d="M30.6667 22H23.1667C22.2462 22 21.5 22.7462 21.5 23.6667V31.1667C21.5 32.0871 22.2462 32.8333 23.1667 32.8333H30.6667C31.5871 32.8333 32.3333 32.0871 32.3333 31.1667V23.6667C32.3333 22.7462 31.5871 22 30.6667 22Z" stroke="#002DCB" stroke-width="1.06" stroke-linecap="round" stroke-linejoin="round"/>
<path d="M18.1666 27H17.3333C16.8913 27 16.4673 26.8244 16.1548 26.5119C15.8422 26.1993 15.6666 25.7754 15.6666 25.3334V17.8334C15.6666 17.3913 15.8422 16.9674 16.1548 16.6548C16.4673 16.3423 16.8913 16.1667 17.3333 16.1667H24.8333C25.2753 16.1667 25.6992 16.3423 26.0118 16.6548C26.3244 16.9674 26.5 17.3913 26.5 17.8334V18.6667" stroke="#002DCB" stroke-width="1.06" stroke-linecap="round" stroke-linejoin="round"/>
</svg>
