<svg width="48" height="49" viewBox="0 0 48 49" fill="none" xmlns="http://www.w3.org/2000/svg">
<rect y="0.5" width="48" height="48" rx="24" fill="#D7E0FF"/>
<path d="M27.3333 17.8334V17C27.3333 16.5398 26.9602 16.1667 26.5 16.1667H21.5C21.0398 16.1667 20.6667 16.5398 20.6667 17V17.8334M27.3333 17.8334V18.6667C27.3333 19.1269 26.9602 19.5 26.5 19.5H21.5C21.0398 19.5 20.6667 19.1269 20.6667 18.6667V17.8334M27.3333 17.8334H29C29.442 17.8334 29.8659 18.0089 30.1785 18.3215C30.4911 18.6341 30.6667 19.058 30.6667 19.5V31.1667C30.6667 31.6087 30.4911 32.0326 30.1785 32.3452C29.8659 32.6578 29.442 32.8334 29 32.8334H19C18.558 32.8334 18.134 32.6578 17.8215 32.3452C17.5089 32.0326 17.3333 31.6087 17.3333 31.1667V19.5C17.3333 19.058 17.5089 18.6341 17.8215 18.3215C18.134 18.0089 18.5579 17.8334 19 17.8334L20.6667 17.8334" stroke="#002DCB" stroke-width="1.06" stroke-linecap="round" stroke-linejoin="round"/>
</svg>
