<svg width="210" height="28" viewBox="0 0 210 28" fill="none" xmlns="http://www.w3.org/2000/svg">
<path d="M114.65 0.5C114.56 0.5 114.47 0.54 114.41 0.6C114.35 0.66 114.31 0.75 114.31 0.84V3.53C114.31 3.62 114.35 3.71 114.41 3.77C114.47 3.83 114.56 3.87 114.65 3.87C114.74 3.87 114.83 3.83 114.89 3.77C114.95 3.71 114.99 3.62 114.99 3.53V0.84C114.99 0.75 114.95 0.66 114.89 0.6C114.83 0.54 114.74 0.5 114.65 0.5ZM116.04 0.5C115.95 0.5 115.86 0.54 115.8 0.6C115.74 0.66 115.7 0.75 115.7 0.84V3.53C115.7 3.62 115.74 3.71 115.8 3.77C115.86 3.83 115.95 3.87 116.04 3.87C116.13 3.87 116.22 3.83 116.28 3.77C116.34 3.71 116.38 3.62 116.38 3.53V0.84C116.38 0.75 116.34 0.66 116.28 0.6C116.22 0.54 116.13 0.5 116.04 0.5ZM117.43 3.87C117.52 3.87 117.61 3.83 117.67 3.77C117.73 3.71 117.77 3.62 117.77 3.53V0.84C117.77 0.75 117.73 0.66 117.67 0.6C117.61 0.54 117.52 0.5 117.43 0.5C117.34 0.5 117.25 0.54 117.19 0.6C117.13 0.66 117.09 0.75 117.09 0.84V3.53C117.09 3.62 117.13 3.71 117.19 3.77C117.25 3.83 117.34 3.87 117.43 3.87ZM118.82 3.87C118.91 3.87 119 3.83 119.06 3.77C119.12 3.71 119.16 3.62 119.16 3.53V0.84C119.16 0.75 119.12 0.66 119.06 0.6C119 0.54 118.91 0.5 118.82 0.5C118.73 0.5 118.64 0.54 118.58 0.6C118.52 0.66 118.48 0.75 118.48 0.84V3.53C118.48 3.62 118.52 3.71 118.58 3.77C118.64 3.83 118.73 3.87 118.82 3.87ZM99.23 3.87H107.38V27.54H111.05V3.87H113.62V0.5H99.24V3.87H99.23ZM190.22 25.08C186.74 25.08 184.72 22.95 184.46 19.1L198.6 19.06V17.75C198.6 12.33 195.2 8.74 190 8.74C184.8 8.74 181.06 12.7 181.06 18.43C181.06 24.16 184.76 28 190.15 28C194.68 28 197.74 25.79 198.64 21.87H195.35C194.75 23.96 192.96 25.09 190.23 25.09L190.22 25.08ZM190 11.69C193.1 11.69 195.09 13.71 195.09 16.74H184.54C184.99 13.52 186.93 11.69 190 11.69ZM206.01 9.26V3.53H202.49V9.25H198.9V12.2H202.49V27.53H206.01V12.21H209.6V9.26H206.01ZM144.82 17.41L141.6 16.62C139.81 16.17 138.91 15.35 138.91 14.11C138.91 12.43 140.14 11.45 142.35 11.45C144.56 11.45 145.72 12.61 145.79 14.44H149.16C149.09 10.96 146.47 8.72 142.47 8.72C138.47 8.72 135.59 10.85 135.59 14.22C135.59 16.91 137.12 18.52 140.38 19.31L143.6 20.06C145.51 20.55 146.11 21.29 146.11 22.53C146.11 24.21 144.69 25.22 142.22 25.22C139.9 25.22 138.48 24.1 138.48 22.23H135.11C135.11 25.71 137.84 27.99 142.14 27.99C146.44 27.99 149.47 25.78 149.47 22.3C149.47 19.57 147.94 18.15 144.83 17.4L144.82 17.41ZM125.78 25.08C122.3 25.08 120.28 22.95 120.02 19.1L134.16 19.06V17.75C134.16 12.33 130.76 8.74 125.56 8.74C120.36 8.74 116.62 12.7 116.62 18.43C116.62 24.16 120.32 28 125.71 28C130.24 28 133.3 25.79 134.2 21.87H130.91C130.31 23.96 128.52 25.09 125.79 25.09L125.78 25.08ZM125.56 11.69C128.66 11.69 130.65 13.71 130.65 16.74H120.1C120.55 13.52 122.49 11.69 125.56 11.69ZM171.86 8.74C169.28 8.74 166.96 9.97 165.8 12.07L165.43 9.27H162.25V27.54H165.77V17.85C165.77 14.3 167.68 11.94 170.97 11.94C173.66 11.94 175.38 13.44 175.38 17.14V27.54H178.9V16.36C178.9 11.69 176.69 8.73 171.87 8.73L171.86 8.74ZM157.01 3.54H153.49V9.26H149.9V12.21H153.49V27.54H157.01V12.21H160.6V9.26H157.01V3.53V3.54Z" fill="#002DCB"/>
<path d="M66.64 7.83002C66.46 7.83002 66.31 7.98002 66.31 8.17002V13.76C66.31 13.95 66.46 14.11 66.64 14.11C66.82 14.11 66.97 13.96 66.97 13.76V8.17002C66.97 7.98002 66.82 7.83002 66.64 7.83002ZM66.64 21.71C66.46 21.71 66.31 21.86 66.31 22.06V27.65C66.31 27.84 66.46 28 66.64 28C66.82 28 66.97 27.85 66.97 27.65V22.06C66.97 21.87 66.82 21.71 66.64 21.71ZM75.83 17.57H70.55C70.37 17.57 70.22 17.72 70.22 17.91C70.22 18.1 70.37 18.26 70.55 18.26H75.83C76.01 18.26 76.16 18.11 76.16 17.91C76.16 17.71 76.01 17.57 75.83 17.57ZM62.72 18.26C62.9 18.26 63.05 18.11 63.05 17.91C63.05 17.71 62.9 17.57 62.72 17.57H57.44C57.26 17.57 57.11 17.72 57.11 17.91C57.11 18.1 57.26 18.26 57.44 18.26H62.72ZM69.07 14.98C69.07 15.07 69.1 15.16 69.17 15.22C69.3 15.36 69.5 15.36 69.63 15.22L73.36 11.27C73.42 11.2 73.46 11.12 73.46 11.03C73.46 10.94 73.43 10.85 73.36 10.79C73.23 10.65 73.03 10.65 72.9 10.79L69.17 14.74C69.11 14.81 69.07 14.89 69.07 14.98ZM64.19 20.84C64.19 20.75 64.16 20.66 64.09 20.6C63.96 20.46 63.76 20.46 63.63 20.6L59.9 24.55C59.84 24.62 59.8 24.7 59.8 24.79C59.8 24.88 59.83 24.97 59.9 25.03C60.03 25.17 60.23 25.17 60.36 25.03L64.09 21.08C64.15 21.01 64.19 20.93 64.19 20.84ZM69.63 20.6C69.5 20.46 69.3 20.46 69.17 20.6C69.11 20.67 69.07 20.75 69.07 20.84C69.07 20.93 69.1 21.02 69.17 21.08L72.9 25.03C73.03 25.17 73.23 25.17 73.36 25.03C73.42 24.96 73.46 24.88 73.46 24.79C73.46 24.7 73.43 24.61 73.36 24.55L69.63 20.6ZM63.64 15.23C63.77 15.37 63.97 15.37 64.1 15.23C64.16 15.16 64.2 15.08 64.2 14.99C64.2 14.9 64.17 14.81 64.1 14.75L60.37 10.8C60.24 10.66 60.04 10.66 59.91 10.8C59.85 10.87 59.81 10.95 59.81 11.04C59.81 11.13 59.84 11.22 59.91 11.28L63.64 15.23ZM67.57 14.25C67.74 14.3 67.92 14.19 67.97 14.01L69.34 8.61002C69.39 8.43002 69.28 8.24002 69.11 8.19002C68.94 8.14002 68.76 8.25002 68.71 8.43002L67.34 13.83C67.29 14.01 67.4 14.2 67.57 14.25ZM65.71 21.59C65.54 21.54 65.36 21.65 65.31 21.83L63.94 27.23C63.89 27.41 64 27.6 64.17 27.65C64.34 27.7 64.52 27.59 64.57 27.41L65.94 22.01C65.99 21.83 65.88 21.64 65.71 21.59ZM75.6 20.11L70.5 18.66C70.33 18.61 70.15 18.72 70.1 18.9C70.05 19.08 70.16 19.27 70.33 19.32L75.43 20.77C75.6 20.82 75.78 20.71 75.83 20.53C75.88 20.35 75.77 20.16 75.6 20.11ZM57.67 15.74L62.77 17.19C62.94 17.24 63.12 17.13 63.17 16.95C63.22 16.77 63.11 16.58 62.94 16.53L57.84 15.08C57.67 15.03 57.49 15.14 57.44 15.32C57.39 15.5 57.5 15.69 57.67 15.74ZM69.74 16.03C69.83 16.19 70.03 16.25 70.19 16.16L74.76 13.36C74.92 13.26 74.97 13.05 74.88 12.89C74.79 12.72 74.59 12.67 74.43 12.76L69.86 15.56C69.7 15.66 69.65 15.87 69.74 16.03ZM63.53 19.83C63.44 19.66 63.24 19.61 63.08 19.7L58.51 22.5C58.35 22.6 58.3 22.81 58.39 22.97C58.48 23.13 58.68 23.19 58.84 23.1L63.41 20.3C63.57 20.2 63.62 19.99 63.53 19.83ZM68.87 21.35C68.78 21.19 68.58 21.13 68.42 21.22C68.26 21.31 68.21 21.53 68.3 21.69L70.94 26.53C71.03 26.7 71.23 26.75 71.39 26.66C71.55 26.56 71.6 26.35 71.51 26.19L68.87 21.35ZM64.39 14.52C64.48 14.68 64.68 14.74 64.84 14.65C65 14.56 65.05 14.34 64.96 14.18L62.32 9.34002C62.23 9.18002 62.03 9.12002 61.87 9.21002C61.71 9.30002 61.66 9.52002 61.75 9.68002L64.39 14.52ZM68.42 14.65C68.58 14.75 68.78 14.69 68.87 14.52L71.51 9.68002C71.6 9.51002 71.55 9.30002 71.39 9.21002C71.23 9.11002 71.03 9.17002 70.94 9.34002L68.3 14.18C68.21 14.35 68.26 14.56 68.42 14.65ZM64.83 21.23C64.67 21.13 64.48 21.19 64.38 21.35L61.74 26.19C61.65 26.36 61.7 26.57 61.86 26.66C62.01 26.76 62.21 26.7 62.31 26.53L64.95 21.69C65.04 21.53 64.99 21.31 64.83 21.22V21.23ZM70.18 19.72C70.02 19.62 69.82 19.68 69.73 19.85C69.64 20.02 69.69 20.23 69.85 20.32L74.42 23.12C74.58 23.22 74.77 23.16 74.87 22.99C74.96 22.82 74.91 22.61 74.75 22.52L70.18 19.72ZM63.08 16.17C63.24 16.27 63.44 16.21 63.53 16.04C63.62 15.87 63.57 15.66 63.41 15.57L58.84 12.77C58.68 12.67 58.49 12.73 58.39 12.9C58.3 13.06 58.35 13.28 58.51 13.37L63.08 16.17ZM70.13 16.7C70.09 16.78 70.08 16.87 70.1 16.96C70.15 17.14 70.32 17.25 70.5 17.2L75.6 15.75C75.77 15.7 75.88 15.51 75.83 15.33C75.78 15.15 75.6 15.04 75.43 15.09L70.33 16.54C70.24 16.57 70.17 16.63 70.13 16.71V16.7ZM63.17 18.91C63.12 18.73 62.94 18.62 62.77 18.67L57.67 20.12C57.58 20.15 57.51 20.21 57.47 20.29C57.43 20.37 57.42 20.46 57.44 20.55C57.49 20.73 57.66 20.84 57.84 20.79L62.94 19.34C63.11 19.29 63.22 19.1 63.17 18.92V18.91ZM67.56 21.58C67.39 21.63 67.28 21.82 67.33 22L68.7 27.4C68.75 27.58 68.92 27.69 69.1 27.64C69.27 27.59 69.38 27.4 69.33 27.22L67.96 21.82C67.91 21.64 67.73 21.53 67.56 21.58ZM65.7 14.24C65.87 14.19 65.98 14 65.93 13.82L64.56 8.42002C64.51 8.24002 64.33 8.13002 64.16 8.18002C63.99 8.23002 63.88 8.42002 63.93 8.60002L65.3 14C65.35 14.18 65.53 14.29 65.7 14.24Z" fill="#002DCB"/>
<path d="M36.13 24.25C35.27 24.8 34.16 25.07 32.81 25.07C30.96 25.07 29.55 24.48 28.56 23.31C27.71 22.28 27.25 20.85 27.13 19.08L41.07 19.05V17.74C41.07 15.92 40.71 14.33 40 12.99C39.31 11.64 38.33 10.59 37.05 9.85001C35.79 9.10001 34.31 8.73001 32.58 8.73001C30.85 8.73001 29.29 9.14001 27.97 9.96001C26.67 10.78 25.63 11.92 24.87 13.37C24.13 14.82 23.76 16.5 23.76 18.42C23.76 20.34 24.14 21.99 24.91 23.44C25.67 24.86 26.73 25.99 28.08 26.81C29.43 27.61 30.99 28.01 32.73 28.01C34.97 28.01 36.82 27.47 38.27 26.4C39.72 25.33 40.67 23.82 41.11 21.87H37.86C37.56 22.92 36.99 23.72 36.12 24.27V24.25H36.13ZM27.72 14.71C28.16 13.71 28.79 12.96 29.6 12.46C30.44 11.94 31.43 11.67 32.59 11.67C34.12 11.67 35.33 12.13 36.25 13.06C37.16 13.98 37.62 15.21 37.62 16.73H27.2C27.3 15.98 27.47 15.3 27.72 14.71ZM90.7 19.13C89.94 18.33 88.79 17.76 87.27 17.41L84.09 16.62C82.32 16.17 81.43 15.33 81.43 14.11C81.43 13.29 81.73 12.64 82.32 12.16C82.91 11.68 83.75 11.45 84.83 11.45C85.91 11.45 86.71 11.71 87.3 12.24C87.89 12.77 88.2 13.5 88.22 14.45H91.54C91.52 13.28 91.22 12.27 90.65 11.42C90.11 10.57 89.35 9.91001 88.36 9.44001C87.4 8.97001 86.26 8.73001 84.93 8.73001C83.6 8.73001 82.42 8.96001 81.39 9.40001C80.38 9.85001 79.58 10.49 78.99 11.31C78.42 12.13 78.14 13.11 78.14 14.23C78.14 15.58 78.52 16.66 79.29 17.49C80.08 18.31 81.27 18.92 82.87 19.32L86.04 20.07C86.98 20.32 87.62 20.64 87.96 21.04C88.33 21.44 88.51 21.94 88.51 22.54C88.51 23.36 88.18 24.03 87.51 24.52C86.85 24.99 85.9 25.23 84.67 25.23C83.54 25.23 82.64 24.97 81.98 24.44C81.31 23.89 80.98 23.15 80.98 22.23H77.66C77.66 23.98 78.29 25.37 79.54 26.42C80.8 27.47 82.48 27.99 84.6 27.99C86.05 27.99 87.31 27.76 88.37 27.32C89.45 26.85 90.3 26.18 90.92 25.34C91.53 24.47 91.84 23.46 91.84 22.31C91.84 20.96 91.46 19.9 90.69 19.13H90.7ZM16.84 12.12H3.62V0.480006H0V27.54H3.62V15.52H16.84V27.54H20.46V0.480006H16.84V12.12ZM43.93 27.54H47.4V-0.00999451H43.93V27.54ZM53.09 0.250005C52.47 0.250005 51.93 0.470006 51.47 0.920006C51.03 1.37001 50.81 1.92001 50.81 2.57001C50.81 3.22001 51.03 3.74001 51.47 4.22001C51.94 4.67001 52.48 4.89001 53.09 4.89001C53.7 4.89001 54.27 4.67001 54.71 4.22001C55.15 3.75001 55.37 3.20001 55.37 2.57001C55.37 1.94001 55.15 1.37001 54.71 0.920006C54.27 0.470006 53.73 0.250005 53.09 0.250005ZM51.39 27.54H54.86V9.24001H51.39V27.54Z" fill="#060F32"/>
</svg>
